{"title":"Banished S01E05 x264 RB58.mp4","uid":11793057,"size":677186924,"categoryP":"video","categoryS":"tv_shows","magnet":"?xt=urn:btih:62143d63bac577f2ac7f9ad0d4ed7a8422b74d54&amp;dn=Banished+S01E05+x264+RB58.mp4&amp;tr=udp%3A%2F%2Ftracker.openbittorrent.com%3A80&amp;tr=udp%3A%2F%2Fopen.demonii.com%3A1337&amp;tr=udp%3A%2F%2Ftracker.coppersurfer.tk%3A6969&amp;tr=udp%3A%2F%2Fexodus.desync.com%3A6969","seeders":2,"leechers":0,"uploader":"RedBaron58","files":1,"time":1428022403,"description":"Banished S01E05 x264 mp4\n &lt;a href=&quot;\nhttp://www.imdb.com/title/tt3508050/&quot; rel=&quot;nofollow&quot; target=&quot;_NEW&quot;&gt;\nhttp://www.imdb.com/title/tt3508050/&lt;/a&gt;\n\nTrailer:\n\n\nPlease be patient My intial upload speed is limited.\nThank you for your kind comments and feedback on my other torrents, your feedback is welcome.\n\n\nAbout the Episode:\nDrama set in 1788 about a camp in which the first British convicts transported to Australia live alongside \ntheir Royal Navy marine guards and their commanding officers. \nTommy is not alone in thinking James must have been persuaded by the authorities to turn informer to \nsave his neck, with convict agitator Spragg branding him a traitor who must die. \nMajor Ross's batman Mulrooney is bitten by a venomous snake while out in the Bush hunting for much-needed \nfood, while Tommy, James and Elizabeth convince Buckley, Timmins and MacDonald to let them join \ntheir game of cards, but events spiral out of control with terrible consequences.\n\n\nI hope you enjoy.\n\n\nTechnical:\n\nGeneral\nComplete name                            : H:Banished S01E05 x264 RB58.mp4\nFormat                                   : MPEG-4\nFormat profile                           : Base Media\nCodec ID                                 : isom\nFile size                                : 646 MiB\nDuration                                 : 59mn 6s\nOverall bit rate                         : 1 528 Kbps\nWriting application                      : Lavf54.63.104\n\nVideo\nID                                       : 1\nFormat                                   : AVC\nFormat/Info                              : Advanced Video Codec\nFormat profile                           : &lt;a class=&quot;__cf_email__&quot; href=&quot;/cdn-cgi/l/email-protection&quot; data-cfemail=&quot;a8e0c1cfc0e8e49b8698&quot;&gt;[email&amp;#160;protected]&lt;/a&gt;&lt;script cf-hash='f9e31' type=&quot;text/javascript&quot;&gt;\n/* &lt;![CDATA[ */!function(){try{var t=&quot;currentScript&quot;in document?document.currentScript:function(){for(var t=document.getElementsByTagName(&quot;script&quot;),e=t.length;e--;)if(t[e].getAttribute(&quot;cf-hash&quot;))return t[e]}();if(t&amp;&amp;t.previousSibling){var e,r,n,i,c=t.previousSibling,a=c.getAttribute(&quot;data-cfemail&quot;);if(a){for(e=&quot;&quot;,r=parseInt(a.substr(0,2),16),n=2;a.length-n;n+=2)i=parseInt(a.substr(n,2),16)^r,e+=String.fromCharCode(i);e=document.createTextNode(e),c.parentNode.replaceChild(e,c)}}}catch(u){}}();/* ]]&gt; */&lt;/script&gt;\nFormat settings, CABAC                   : Yes\nFormat settings, ReFrames                : 4 frames\nCodec ID                                 : avc1\nCodec ID/Info                            : Advanced Video Coding\nDuration                                 : 59mn 6s\nBit rate                                 : 1 400 Kbps\nWidth                                    : 832 pixels\nHeight                                   : 468 pixels\nDisplay aspect ratio                     : 16:9\nFrame rate mode                          : Constant\nFrame rate                               : 25.000 fps\nColor space                              : YUV\nChroma subsampling                       : 4:2:0\nBit depth                                : 8 bits\nScan type                                : Progressive\nBits/(Pixel*Frame)                       : 0.144\nStream size                              : 592 MiB (92%)\nWriting library                          : x264 core 123 r2189 35cf912\nEncoding settings                        : cabac=1 / ref=3 / deblock=1:0:0\n\nAudio\nID                                       : 2\nFormat                                   : AAC\nFormat/Info                              : Advanced Audio Codec\nFormat profile                           : LC\nCodec ID                                 : 40\nDuration                                 : 59mn 5s\nBit rate mode                            : Constant\nBit rate                                 : 119 Kbps\nChannel(s)                               : 2 channels\nChannel positions                        : Front: L R\nSampling rate                            : 48.0 KHz\nCompression mode                         : Lossy\nStream size                              : 50.5 MiB (8%)","torrent":{"xt":"urn:btih:62143d63bac577f2ac7f9ad0d4ed7a8422b74d54","amp;dn":"Banished+S01E05+x264+RB58.mp4","amp;tr":["udp%3A%2F%2Ftracker.openbittorrent.com%3A80","udp%3A%2F%2Fopen.demonii.com%3A1337","udp%3A%2F%2Ftracker.coppersurfer.tk%3A6969","udp%3A%2F%2Fexodus.desync.com%3A6969"],"infoHash":"62143d63bac577f2ac7f9ad0d4ed7a8422b74d54","infoHashBuffer":{"type":"Buffer","data":[98,20,61,99,186,197,119,242,172,127,154,208,212,237,122,132,34,183,77,84]},"announce":[],"urlList":[]}}